<svg width="150" height="36" viewBox="0 0 150 36" fill="none" xmlns="http://www.w3.org/2000/svg">
<path d="M34.6697 0.673096V6.94748L31.7472 7.7119L29.9162 5.47571L28.9494 7.4041C26.9555 6.85371 24.2099 6.49902 20.4333 6.49902C16.6566 6.49902 13.911 6.85575 11.9172 7.4041L10.9504 5.47571L9.11936 7.7119L6.19691 6.94748V0.673096C6.19691 0.673096 1.27458 4.8866 0.335938 10.5821L6.79585 12.8488C7.0069 16.8096 8.7636 27.5013 9.26609 28.4716C9.80073 29.5051 12.6387 32.4588 14.8597 33.5942C14.8597 33.5942 15.6637 32.732 16.1541 31.9716C16.7772 32.7157 19.9951 35.3249 20.4353 35.3249C20.8755 35.3249 24.0934 32.7157 24.7165 31.9716C25.2069 32.732 26.0109 33.5942 26.0109 33.5942C28.2318 32.4588 31.0699 29.5051 31.6045 28.4716C32.107 27.5013 33.8637 16.8096 34.0747 12.8488L40.5347 10.5821C39.592 4.8866 34.6697 0.673096 34.6697 0.673096ZM31.2447 19.7042L26.8731 20.0996L27.257 25.5362C27.257 25.5362 24.5979 27.7683 20.4313 27.7683C16.2647 27.7683 13.6055 25.5362 13.6055 25.5362L13.9894 20.0996L9.61783 19.7042L8.87013 13.5806L16.1159 16.1246L15.5531 23.7464C16.8998 24.093 18.3168 24.4375 20.4333 24.4375C22.5497 24.4375 23.9647 24.093 25.3114 23.7464L24.7486 16.1246L31.9944 13.5806L31.2467 19.7042H31.2447Z" fill="#183134"/>
<path d="M48.4296 10.7472L54.6744 11.5259V29.7885H60.2942V11.5259L66.5049 10.7472V6.21167H48.4296V10.7472Z" fill="#183134"/>
<path d="M81.8509 20.3504C81.8509 23.0086 80.5726 24.8819 77.9134 24.8819C75.2543 24.8819 73.9076 23.0432 73.9076 20.3851V6.21167H68.2878V20.3851C68.2878 26.2783 71.2826 30.2309 77.8471 30.2309C84.4116 30.2309 87.4727 26.0398 87.4727 20.3504V6.21167H81.8529V20.3504H81.8509Z" fill="#183134"/>
<path d="M105.578 13.2301C105.578 8.7679 103.12 6.21167 98.2419 6.21167H90.2323V29.7865H95.8199V20.1099H97.3354L101.912 29.7865H107.936L102.618 19.0214C104.503 17.8635 105.58 15.8536 105.58 13.2301H105.578ZM97.7696 15.4785H95.8179V11.1182H97.7696C99.0137 11.1182 99.7875 11.9703 99.7875 13.2647C99.7875 14.5592 99.0479 15.4785 97.7696 15.4785Z" fill="#183134"/>
<path d="M118.468 15.8536L115.539 14.6957C113.958 14.0821 113.419 13.4013 113.419 12.4126C113.419 11.424 114.058 10.6412 115.338 10.6412C116.619 10.6412 117.391 11.6625 117.358 13.1281H122.54C122.777 8.93706 120.791 5.76929 115.304 5.76929C110.762 5.76929 107.799 8.63129 107.799 12.7531C107.799 15.6151 109.043 17.9307 111.401 19.1579C112.679 19.8061 113.857 20.2485 115.035 20.7255C116.548 21.3044 117.491 21.9526 117.491 23.2797C117.491 24.6067 116.548 25.3589 115.27 25.3589C113.419 25.3589 112.846 23.8932 112.914 22.395H107.596C107.395 25.8359 108.605 30.2308 115.27 30.2308C119.947 30.2308 123.28 27.4381 123.28 22.6681C123.28 19.1599 121.495 17.1154 118.466 15.8536H118.468Z" fill="#183134"/>
<path d="M136.575 5.76929C129.408 5.76929 124.494 11.1855 124.494 18.0347C124.494 24.8839 129.139 30.2308 136.744 30.2308C144.35 30.2308 148.928 24.8146 148.928 17.9328C148.928 11.0509 144.183 5.76929 136.575 5.76929ZM136.71 24.9166C132.839 24.9166 130.383 21.8854 130.383 18.0001C130.383 14.1147 132.572 11.0836 136.676 11.0836C140.78 11.0836 143.037 14.1494 143.037 18.0001C143.037 21.8507 140.816 24.9166 136.71 24.9166Z" fill="#183134"/>
</svg>
