<svg width="26" height="26" viewBox="0 0 26 26" fill="none" xmlns="http://www.w3.org/2000/svg">
<path d="M12.9985 1.42448e-06C9.90328 -0.00144689 6.90907 1.10155 4.55444 3.11062C2.19981 5.11968 0.639289 7.90296 0.153541 10.9599C-0.332208 14.0168 0.288699 17.1467 1.90459 19.7867C3.52047 22.4267 6.0253 24.4035 8.96854 25.3615H9.28199C9.43539 25.3711 9.58907 25.3479 9.7328 25.2934C9.87654 25.239 10.0071 25.1546 10.1157 25.0459C10.2243 24.9371 10.3085 24.8065 10.3628 24.6627C10.417 24.5189 10.44 24.3652 10.4303 24.2118V22.8034C10.4079 22.6606 10.33 22.5324 10.2137 22.4467C10.1505 22.3962 10.0769 22.3603 9.99827 22.3416C9.91961 22.3229 9.83779 22.3218 9.75865 22.3383C6.85532 22.9667 6.23854 21.1467 6.19521 21.0282C5.83015 20.0659 5.18008 19.238 4.33188 18.655C4.28034 18.6113 4.2258 18.5712 4.16865 18.5351C4.29454 18.4674 4.43861 18.4411 4.58032 18.46C4.85285 18.4974 5.111 18.6049 5.32951 18.772C5.54802 18.9391 5.7194 19.1601 5.82688 19.4133C6.24596 20.143 6.93175 20.6818 7.73994 20.9161C8.54814 21.1505 9.41574 21.0623 10.1602 20.67C10.2396 20.6345 10.3095 20.5806 10.364 20.5128C10.4184 20.445 10.456 20.3652 10.4737 20.28C10.515 19.7786 10.7295 19.3073 11.0803 18.9468C11.1579 18.8776 11.214 18.7876 11.2419 18.6875C11.2697 18.5873 11.2682 18.4813 11.2374 18.382C11.2067 18.2827 11.148 18.1944 11.0684 18.1275C10.9888 18.0607 10.8916 18.0181 10.7885 18.005C8.22032 17.7132 5.59865 16.8133 5.59865 12.3818C5.57721 11.269 5.98477 10.1906 6.73688 9.37011C6.8051 9.29318 6.85034 9.19864 6.86745 9.09726C6.88456 8.99587 6.87285 8.89172 6.83365 8.79667C6.53281 7.95541 6.53689 7.03522 6.84521 6.19667C7.84621 6.37433 8.7851 6.80333 9.57521 7.44178C9.64051 7.48772 9.71528 7.51844 9.79402 7.53168C9.87276 7.54493 9.95346 7.54037 10.0302 7.51833C10.998 7.25627 11.9959 7.12128 12.9985 7.11678C14.0053 7.11822 15.0063 7.25255 15.977 7.51833C16.0522 7.5388 16.1311 7.54256 16.2079 7.52933C16.2848 7.51611 16.3578 7.48622 16.4219 7.44178C17.2133 6.8047 18.152 6.37657 19.1519 6.19667C19.4465 7.03086 19.4465 7.9408 19.1519 8.775C19.1109 8.86972 19.0983 8.97428 19.1154 9.07604C19.1326 9.1778 19.1789 9.27241 19.2487 9.34844C19.9932 10.1609 20.4002 11.2264 20.3869 12.3283C20.3869 16.7599 17.7537 17.6482 15.1753 17.94C15.0693 17.9505 14.9687 17.9921 14.8862 18.0596C14.8038 18.1272 14.7431 18.2176 14.7119 18.3195C14.6807 18.4214 14.6804 18.5303 14.7109 18.6324C14.7415 18.7345 14.8015 18.8253 14.8835 18.8933C15.1234 19.1411 15.3066 19.4379 15.4206 19.7633C15.5345 20.0888 15.5765 20.4351 15.5437 20.7783V24.2233C15.5387 24.3927 15.571 24.5612 15.6384 24.7167C15.7058 24.8722 15.8066 25.011 15.9337 25.1232C16.0959 25.2445 16.2841 25.3262 16.4835 25.3618C16.6829 25.3974 16.8878 25.386 17.082 25.3283C20.0048 24.3505 22.4851 22.3661 24.0804 19.7292C25.6758 17.0922 26.2824 13.9742 25.792 10.9315C25.3016 7.88876 23.7462 5.11922 21.4031 3.11698C19.0601 1.11474 16.082 0.0100483 13 1.42448e-06" fill="white" fill-opacity="0.8"/>
</svg>
